PathFileType	4	(X/Y/Z)	s05c0402.trc
DataRate	CameraRate	NumFrames	NumMarkers	Units	OrigDataRate	OrigDataStartFrame	OrigNumFrames
200	200	5	50	mm	200	750	2000
Frame#	Time	racr			lacr			c7			jug			rlel			rdr			llel			ldr			s2			lic			ric			lasi			rasi			rpsi			lpsi			rgt			lgt			rth1			rth2			rth3			rth4			rlfc			rmfc			rsh1			rsh2			rsh3			rsh4			rlmal			rmmal			rcal			rtoe			rmt5			lth1			lth2			lth4			lth3			llfc			lmfc			lsh1			lsh2			lsh3			lsh4			llmal			lmmal			lcal			ltoe			lmt5			SBIKE			LBIKE			RBIKE			
		X1	Y1	Z1	X2	Y2	Z2	X3	Y3	Z3	X4	Y4	Z4	X5	Y5	Z5	X6	Y6	Z6	X7	Y7	Z7	X8	Y8	Z8	X9	Y9	Z9	X10	Y10	Z10	X11	Y11	Z11	X12	Y12	Z12	X13	Y13	Z13	X14	Y14	Z14	X15	Y15	Z15	X16	Y16	Z16	X17	Y17	Z17	X18	Y18	Z18	X19	Y19	Z19	X20	Y20	Z20	X21	Y21	Z21	X22	Y22	Z22	X23	Y23	Z23	X24	Y24	Z24	X25	Y25	Z25	X26	Y26	Z26	X27	Y27	Z27	X28	Y28	Z28	X29	Y29	Z29	X30	Y30	Z30	X31	Y31	Z31	X32	Y32	Z32	X33	Y33	Z33	X34	Y34	Z34	X35	Y35	Z35	X36	Y36	Z36	X37	Y37	Z37	X38	Y38	Z38	X39	Y39	Z39	X40	Y40	Z40	X41	Y41	Z41	X42	Y42	Z42	X43	Y43	Z43	X44	Y44	Z44	X45	Y45	Z45	X46	Y46	Z46	X47	Y47	Z47	X48	Y48	Z48	X49	Y49	Z49	X50	Y50	Z50	
750	3.7500	814.943474	1260.170917	-125.500718	795.043911	1295.315133	-432.965267	803.931183	1372.117761	-283.360583	740.718527	1216.405124	-281.815058	580.564438	1140.430597	37.764540	684.153285	965.973970	-68.566085	550.769511	1166.786658	-584.546300	675.856205	964.263650	-505.017078	213.100212	1268.683007	-297.405829	373.604307	1224.589548	-423.578897	343.553156	1280.976824	-148.360257	397.360445	1166.186665	-374.950402	371.507436	1206.745384	-163.426748	253.424206	1313.454410	-261.676071	266.660849	1300.262138	-344.237010	281.844016	1168.113599	-109.578717	271.225917	1139.667477	-441.037400	371.421048	1090.110983	-95.288467	451.024285	1050.968492	-91.605214	498.637670	976.441355	-90.772220	474.831291	1076.527927	-106.956731	602.255753	864.960112	-115.526934	590.651390	861.506886	-229.470633	511.591320	808.447574	-93.705930	462.238252	734.922372	-102.578506	386.719119	695.273018	-104.925090	484.665401	713.361962	-125.563871	288.633333	593.192407	-113.043902	313.653456	613.611664	-189.722290	210.344736	605.883219	-154.469238	435.811770	415.374026	-165.498740	344.953012	454.742590	-94.003958	296.535434	1002.638887	-452.019467	329.847524	924.371186	-446.436628	364.205715	927.779133	-432.289731	317.596344	834.581579	-447.594887	315.626399	688.559629	-417.547228	293.185379	681.479258	-311.549905	226.696149	596.565378	-449.831144	197.911620	514.821567	-439.396711	130.846168	456.511452	-440.843371	224.322374	498.995949	-416.184899	72.280124	353.574982	-437.847273	135.912913	373.316880	-362.069011	5.889056	362.623473	-394.113256	197.317563	137.562952	-401.865859	102.191587	195.660195	-462.417112	-264.380431	894.781732	-285.294090	-53.527146	79.689604	-474.885258	-53.515605	79.435886	-77.336205	
751	3.7550	814.183281	1255.659630	-124.576389	794.630045	1293.766682	-431.038232	803.995195	1370.221082	-281.205601	739.437357	1214.574838	-281.039750	579.084692	1138.557487	39.128312	683.466699	965.920637	-68.452680	551.000228	1166.726937	-583.961879	676.080571	964.208558	-504.198810	213.555239	1271.766406	-298.244714	373.725758	1227.510775	-424.148981	343.222963	1282.469138	-148.477254	397.039598	1168.477670	-375.850745	370.937006	1208.235716	-164.279357	254.122956	1316.514191	-262.304505	267.481743	1303.181258	-344.496804	280.454755	1170.098143	-110.523370	272.131531	1142.092183	-442.247937	368.762336	1090.497472	-95.766413	447.696823	1050.012471	-91.827371	494.155785	974.708154	-91.054603	472.004242	1075.400890	-106.728796	597.085581	861.530423	-115.400013	585.736597	857.920114	-228.711281	506.929021	803.526796	-93.574060	458.858920	728.956020	-102.156606	384.187328	687.716841	-104.330708	481.199107	707.663071	-125.508274	288.435639	583.484460	-112.633281	312.649481	604.945793	-189.319603	209.313219	593.066883	-153.906330	443.326648	413.064460	-165.205020	350.565219	447.858865	-93.280189	299.895549	1004.357533	-452.272221	335.119463	927.041897	-445.278376	369.206169	931.352976	-430.535470	325.270228	836.910858	-445.967377	325.973898	690.470933	-416.096202	303.045301	684.105065	-310.184868	234.506110	600.785631	-449.265854	203.054461	520.217122	-439.001878	133.806525	464.025778	-440.277717	228.343634	503.600350	-414.830688	71.536082	362.522241	-437.757314	131.126461	378.681104	-361.714813	5.201260	373.432099	-393.915075	188.934638	141.810333	-401.367934	96.066035	203.398191	-461.683415	-263.988475	894.790585	-284.643619	-53.499277	79.905768	-474.813779	-53.470779	79.480979	-77.308421	
752	3.7600	813.372625	1251.367074	-123.741602	794.091869	1292.230485	-429.214987	803.888029	1368.312033	-279.396146	738.097744	1212.639796	-280.363719	577.537869	1136.718621	40.389716	682.796611	965.915023	-68.301054	551.162075	1166.675756	-583.465935	676.204284	964.136629	-503.409244	213.916977	1274.138554	-298.913084	373.981196	1230.246375	-424.784199	342.886220	1283.399313	-148.702181	396.839699	1170.407127	-376.700287	370.352810	1209.575015	-165.320248	255.097000	1319.640770	-264.006456	268.645087	1305.992633	-345.603776	279.228765	1171.319275	-111.310319	273.316372	1144.298300	-443.553121	365.945562	1090.131724	-96.648362	444.069673	1048.119898	-91.797636	489.268567	971.971696	-91.500125	468.679128	1072.858100	-106.303768	591.281434	857.174132	-115.216477	580.259844	853.234874	-228.300493	501.425587	797.485586	-93.276787	454.981734	721.941883	-101.729500	381.295887	679.030877	-103.757859	477.824784	701.039053	-125.023861	288.462324	572.612291	-112.005646	311.406264	595.294441	-189.025096	208.356841	579.088820	-153.244337	450.233241	410.240166	-164.763750	355.514220	440.309575	-92.625470	303.696908	1005.815260	-452.602665	340.862194	929.632097	-444.081447	374.581204	934.990158	-428.855789	333.521609	839.238780	-444.189533	336.392158	692.821589	-414.721802	313.199522	686.677902	-309.029384	242.850260	605.149528	-448.747211	208.490985	525.499882	-438.098737	137.441460	471.577726	-439.734522	233.151535	508.146627	-413.727288	71.316749	371.382127	-437.733539	126.771194	384.397017	-361.404351	5.019180	384.212470	-393.653041	181.192145	146.611303	-401.261189	90.651939	211.303777	-461.064471	-264.090726	895.068402	-284.625294	-53.483334	80.272906	-474.845834	-53.432074	79.540705	-77.251952	
753	3.7650	812.423759	1247.197431	-122.888170	793.574125	1290.792658	-427.569292	803.813653	1366.533369	-277.409477	736.750592	1210.669540	-279.770628	576.064380	1134.918197	41.464500	682.174200	965.917254	-68.044135	551.290045	1166.564383	-583.010050	676.242688	964.097870	-502.715143	214.546763	1275.941871	-299.570424	374.200525	1232.787584	-425.286925	342.606147	1283.891877	-149.014245	396.706423	1172.130443	-377.752288	369.960678	1210.206748	-166.218227	255.993121	1321.515243	-264.478857	269.844046	1308.221719	-346.604216	277.922497	1172.003983	-112.443278	274.715564	1146.188248	-444.888200	363.225619	1088.717647	-97.588172	440.145152	1045.239811	-91.598913	483.909234	968.230212	-91.624609	465.483574	1069.476355	-105.788080	584.840440	851.823188	-115.069197	574.212469	847.756591	-227.920091	495.246634	790.580400	-92.619611	450.955542	713.749705	-101.229107	378.150706	669.159276	-103.153241	474.110549	693.485196	-124.629759	287.698062	561.100030	-111.790006	309.839294	584.777893	-188.898568	207.438261	564.248961	-152.971752	456.363905	406.740702	-163.828642	360.207290	431.581933	-92.181522	307.814228	1007.194581	-453.097434	346.938371	932.123313	-442.956639	380.224902	938.589591	-427.232162	342.014876	841.654684	-442.472725	346.568002	695.341519	-413.404134	323.324672	689.398933	-307.771139	251.233471	609.242639	-447.967380	214.331498	530.905192	-437.382034	141.627917	479.223166	-439.439277	237.967859	512.941799	-412.563372	71.663832	380.280056	-437.735158	122.883874	390.462834	-361.143530	5.680619	395.024424	-393.508619	173.806157	151.468996	-401.083042	85.715788	219.457761	-460.571278	-263.778405	895.369040	-283.937669	-53.374753	80.676278	-474.872858	-53.394338	79.585907	-77.219106	
754	3.7700	811.412180	1243.320772	-122.062845	792.990999	1289.544547	-426.019783	803.690469	1364.715864	-275.845151	735.416969	1208.765083	-279.255506	574.564446	1133.316285	42.404505	681.327650	965.812147	-67.712066	551.336591	1166.439650	-582.597538	676.148107	964.031244	-502.107024	215.164775	1277.461216	-300.699972	374.604696	1235.407678	-426.931367	342.344993	1283.692222	-149.430483	396.667196	1173.542739	-378.685788	370.460203	1210.279142	-165.572473	256.747562	1322.952017	-264.771687	270.362955	1309.567788	-346.721605	276.546448	1172.148753	-113.499681	276.104575	1147.778235	-446.313952	360.478482	1086.358399	-98.154847	436.500263	1040.963724	-92.231488	478.198399	963.328199	-91.979466	461.965079	1065.362702	-104.625061	577.894891	845.601498	-114.859772	567.771607	841.700555	-227.558755	489.889202	782.071217	-92.230746	446.637258	704.511936	-100.801857	374.926557	658.285939	-102.712007	470.150520	684.915977	-124.424879	286.952383	548.621303	-112.119743	308.441705	573.381084	-188.949040	206.973633	548.293821	-153.856682	461.951879	402.501301	-162.317320	364.199321	422.956820	-91.293451	312.606891	1008.564704	-453.967164	353.187134	934.675114	-441.887413	386.054797	942.116379	-425.712314	350.673836	844.070384	-440.488755	356.523274	697.919543	-412.038507	332.928859	692.348554	-306.458076	259.738196	613.342101	-447.138301	220.416759	536.217677	-436.635244	146.249167	486.680391	-439.343044	243.279507	517.584698	-411.481647	72.648778	389.096904	-437.861053	119.501172	396.876713	-360.938250	7.285715	406.154347	-393.913595	166.066230	156.080938	-399.877688	81.152161	227.685338	-460.259044	-263.625839	895.753527	-283.852427	-53.350209	80.965772	-474.846825	-53.337419	79.692273	-77.139979	
